<svg width="341" height="251" viewBox="0 0 341 251" fill="none" xmlns="http://www.w3.org/2000/svg">
  <path id="block-1" d="M174 0L112.884 102.692L256.69 138.936L174 0Z" fill="#1D82FF" fill-opacity="0.2" />
  <path id="block-3" d="M84.1157 151.017L73.3182 169.139L263.227 149.919L259.635 143.878L84.1157 151.017Z" fill="#1D82FF"
    fill-opacity="0.6" />
  <path id="block-4" d="M73.3182 169.139L46.5325 214.169L265.834 154.312L263.227 149.919L73.3182 169.139Z" fill="#1D82FF"
    fill-opacity="0.8" />
  <path id="block-5" d="M46.5324 214.169L29.3726 243H318.627L265.834 154.312L46.5324 214.169Z" fill="#1D82FF" />
  <path id="block-2" d="M112.883 102.691L84.1156 151.017L259.635 143.878L256.69 138.936L112.883 102.691Z" fill="#1D82FF"
    fill-opacity="0.4" />
  <path
    id="text"
    d="M38.822 134.2C39.1353 134.2 39.386 134.325 39.574 134.576C39.8247 134.764 39.95 135.015 39.95 135.328V142.472C39.95 142.785 39.8247 143.067 39.574 143.318C39.386 143.506 39.1353 143.6 38.822 143.6H26.884C26.5707 143.6 26.414 143.757 26.414 144.07V198.872C26.414 199.185 26.2887 199.467 26.038 199.718C25.85 199.906 25.5993 200 25.286 200H16.638C16.3247 200 16.0427 199.906 15.792 199.718C15.604 199.467 15.51 199.185 15.51 198.872V144.07C15.51 143.757 15.3533 143.6 15.04 143.6H3.76C3.44667 143.6 3.16467 143.506 2.914 143.318C2.726 143.067 2.632 142.785 2.632 142.472V135.328C2.632 135.015 2.726 134.764 2.914 134.576C3.16467 134.325 3.44667 134.2 3.76 134.2H38.822ZM90.16 135.328C90.16 135.015 90.254 134.764 90.442 134.576C90.6926 134.325 90.9746 134.2 91.288 134.2H99.936C100.249 134.2 100.5 134.325 100.688 134.576C100.939 134.764 101.064 135.015 101.064 135.328V198.872C101.064 199.185 100.939 199.467 100.688 199.718C100.5 199.906 100.249 200 99.936 200H91.288C90.9746 200 90.6926 199.906 90.442 199.718C90.254 199.467 90.16 199.185 90.16 198.872V172.27C90.16 171.957 90.0033 171.8 89.69 171.8H77.752C77.4386 171.8 77.282 171.957 77.282 172.27V198.872C77.282 199.185 77.1566 199.467 76.906 199.718C76.718 199.906 76.4673 200 76.154 200H67.506C67.1926 200 66.9106 199.906 66.66 199.718C66.472 199.467 66.378 199.185 66.378 198.872V135.328C66.378 135.015 66.472 134.764 66.66 134.576C66.9106 134.325 67.1926 134.2 67.506 134.2H76.154C76.4673 134.2 76.718 134.325 76.906 134.576C77.1566 134.764 77.282 135.015 77.282 135.328V161.836C77.282 162.149 77.4386 162.306 77.752 162.306H89.69C90.0033 162.306 90.16 162.149 90.16 161.836V135.328ZM162.414 142.472C162.414 142.785 162.288 143.067 162.038 143.318C161.85 143.506 161.599 143.6 161.286 143.6H140.982C140.668 143.6 140.512 143.757 140.512 144.07V161.836C140.512 162.149 140.668 162.306 140.982 162.306H153.014C153.327 162.306 153.578 162.431 153.766 162.682C154.016 162.87 154.142 163.121 154.142 163.434V170.672C154.142 170.985 154.016 171.267 153.766 171.518C153.578 171.706 153.327 171.8 153.014 171.8H140.982C140.668 171.8 140.512 171.957 140.512 172.27V190.13C140.512 190.443 140.668 190.6 140.982 190.6H161.286C161.599 190.6 161.85 190.725 162.038 190.976C162.288 191.164 162.414 191.415 162.414 191.728V198.872C162.414 199.185 162.288 199.467 162.038 199.718C161.85 199.906 161.599 200 161.286 200H130.736C130.422 200 130.14 199.906 129.89 199.718C129.702 199.467 129.608 199.185 129.608 198.872V135.328C129.608 135.015 129.702 134.764 129.89 134.576C130.14 134.325 130.422 134.2 130.736 134.2H161.286C161.599 134.2 161.85 134.325 162.038 134.576C162.288 134.764 162.414 135.015 162.414 135.328V142.472ZM218.773 134.952C219.087 134.451 219.557 134.2 220.183 134.2H228.831C229.145 134.2 229.395 134.325 229.583 134.576C229.834 134.764 229.959 135.015 229.959 135.328V198.872C229.959 199.185 229.834 199.467 229.583 199.718C229.395 199.906 229.145 200 228.831 200H220.183C219.87 200 219.588 199.906 219.337 199.718C219.149 199.467 219.055 199.185 219.055 198.872V154.504C219.055 154.253 218.993 154.128 218.867 154.128C218.742 154.128 218.617 154.222 218.491 154.41L210.313 169.262C210 169.763 209.718 170.014 209.467 170.014C209.217 170.014 208.935 169.763 208.621 169.262L200.443 154.41C200.318 154.222 200.193 154.128 200.067 154.128C199.942 154.128 199.879 154.253 199.879 154.504V198.872C199.879 199.185 199.754 199.467 199.503 199.718C199.315 199.906 199.065 200 198.751 200H190.103C189.79 200 189.508 199.906 189.257 199.718C189.069 199.467 188.975 199.185 188.975 198.872V135.328C188.975 135.015 189.069 134.764 189.257 134.576C189.508 134.325 189.79 134.2 190.103 134.2H198.751C199.378 134.2 199.848 134.451 200.161 134.952L209.279 151.026C209.467 151.277 209.655 151.277 209.843 151.026L218.773 134.952ZM259.765 200C259.452 200 259.17 199.906 258.919 199.718C258.731 199.467 258.637 199.185 258.637 198.872V135.328C258.637 135.015 258.731 134.764 258.919 134.576C259.17 134.325 259.452 134.2 259.765 134.2H268.413C268.727 134.2 268.977 134.325 269.165 134.576C269.416 134.764 269.541 135.015 269.541 135.328V198.872C269.541 199.185 269.416 199.467 269.165 199.718C268.977 199.906 268.727 200 268.413 200H259.765ZM313.969 200.752C308.767 200.752 304.569 199.185 301.373 196.052C298.177 192.919 296.579 188.814 296.579 183.738V181.294C296.579 180.981 296.673 180.73 296.861 180.542C297.111 180.291 297.393 180.166 297.707 180.166H306.261C306.574 180.166 306.825 180.291 307.013 180.542C307.263 180.73 307.389 180.981 307.389 181.294V183.174C307.389 185.618 307.984 187.592 309.175 189.096C310.428 190.6 312.026 191.352 313.969 191.352C315.911 191.352 317.509 190.663 318.763 189.284C320.016 187.843 320.643 185.963 320.643 183.644C320.643 182.015 320.298 180.605 319.609 179.414C318.919 178.223 317.948 177.095 316.695 176.03C315.441 174.965 313.436 173.429 310.679 171.424C307.545 169.168 305.007 167.163 303.065 165.408C301.185 163.653 299.587 161.554 298.271 159.11C297.017 156.603 296.391 153.721 296.391 150.462C296.391 145.261 297.957 141.125 301.091 138.054C304.224 134.983 308.36 133.448 313.499 133.448C318.7 133.448 322.899 135.077 326.095 138.336C329.291 141.532 330.889 145.793 330.889 151.12V153.376C330.889 153.689 330.763 153.971 330.513 154.222C330.325 154.41 330.074 154.504 329.761 154.504H321.301C320.987 154.504 320.705 154.41 320.455 154.222C320.267 153.971 320.173 153.689 320.173 153.376V150.932C320.173 148.488 319.546 146.545 318.293 145.104C317.102 143.6 315.504 142.848 313.499 142.848C311.619 142.848 310.083 143.537 308.893 144.916C307.702 146.232 307.107 148.081 307.107 150.462C307.107 152.718 307.733 154.629 308.987 156.196C310.303 157.763 312.841 159.925 316.601 162.682C320.423 165.502 323.306 167.821 325.249 169.638C327.191 171.393 328.695 173.335 329.761 175.466C330.826 177.597 331.359 180.135 331.359 183.08C331.359 188.407 329.761 192.699 326.565 195.958C323.369 199.154 319.17 200.752 313.969 200.752Z"
    fill="#EBEBEB" />
</svg>